<?xml version="1.0" encoding="utf-8"?>
<svg xmlns="http://www.w3.org/2000/svg" xmlns:xlink="http://www.w3.org/1999/xlink" width="450" height="300" viewBox="0 0 1800 1200">
<defs>
  <clipPath id="clip600">
    <rect x="0" y="0" width="1800" height="1200"/>
  </clipPath>
</defs>
<path clip-path="url(#clip600)" d="M0 1200 L1800 1200 L1800 0 L0 0  Z" fill="#ffffff" fill-rule="evenodd" fill-opacity="1"/>
<defs>
  <clipPath id="clip601">
    <rect x="360" y="0" width="1261" height="1200"/>
  </clipPath>
</defs>
<path clip-path="url(#clip600)" d="M219.397 1031.47 L1752.76 1031.47 L1752.76 47.2441 L219.397 47.2441  Z" fill="#ffffff" fill-rule="evenodd" fill-opacity="1"/>
<defs>
  <clipPath id="clip602">
    <rect x="219" y="47" width="1534" height="985"/>
  </clipPath>
</defs>
<polyline clip-path="url(#clip602)" style="stroke:#000000; stroke-linecap:round; stroke-linejoin:round; stroke-width:2; stroke-opacity:0.1; fill:none" points="238.685,1031.47 238.685,47.2441 "/>
<polyline clip-path="url(#clip602)" style="stroke:#000000; stroke-linecap:round; stroke-linejoin:round; stroke-width:2; stroke-opacity:0.1; fill:none" points="479.779,1031.47 479.779,47.2441 "/>
<polyline clip-path="url(#clip602)" style="stroke:#000000; stroke-linecap:round; stroke-linejoin:round; stroke-width:2; stroke-opacity:0.1; fill:none" points="720.873,1031.47 720.873,47.2441 "/>
<polyline clip-path="url(#clip602)" style="stroke:#000000; stroke-linecap:round; stroke-linejoin:round; stroke-width:2; stroke-opacity:0.1; fill:none" points="961.967,1031.47 961.967,47.2441 "/>
<polyline clip-path="url(#clip602)" style="stroke:#000000; stroke-linecap:round; stroke-linejoin:round; stroke-width:2; stroke-opacity:0.1; fill:none" points="1203.06,1031.47 1203.06,47.2441 "/>
<polyline clip-path="url(#clip602)" style="stroke:#000000; stroke-linecap:round; stroke-linejoin:round; stroke-width:2; stroke-opacity:0.1; fill:none" points="1444.16,1031.47 1444.16,47.2441 "/>
<polyline clip-path="url(#clip602)" style="stroke:#000000; stroke-linecap:round; stroke-linejoin:round; stroke-width:2; stroke-opacity:0.1; fill:none" points="1685.25,1031.47 1685.25,47.2441 "/>
<polyline clip-path="url(#clip600)" style="stroke:#000000; stroke-linecap:round; stroke-linejoin:round; stroke-width:4; stroke-opacity:1; fill:none" points="219.397,1031.47 1752.76,1031.47 "/>
<polyline clip-path="url(#clip600)" style="stroke:#000000; stroke-linecap:round; stroke-linejoin:round; stroke-width:4; stroke-opacity:1; fill:none" points="238.685,1031.47 238.685,1012.57 "/>
<polyline clip-path="url(#clip600)" style="stroke:#000000; stroke-linecap:round; stroke-linejoin:round; stroke-width:4; stroke-opacity:1; fill:none" points="479.779,1031.47 479.779,1012.57 "/>
<polyline clip-path="url(#clip600)" style="stroke:#000000; stroke-linecap:round; stroke-linejoin:round; stroke-width:4; stroke-opacity:1; fill:none" points="720.873,1031.47 720.873,1012.57 "/>
<polyline clip-path="url(#clip600)" style="stroke:#000000; stroke-linecap:round; stroke-linejoin:round; stroke-width:4; stroke-opacity:1; fill:none" points="961.967,1031.47 961.967,1012.57 "/>
<polyline clip-path="url(#clip600)" style="stroke:#000000; stroke-linecap:round; stroke-linejoin:round; stroke-width:4; stroke-opacity:1; fill:none" points="1203.06,1031.47 1203.06,1012.57 "/>
<polyline clip-path="url(#clip600)" style="stroke:#000000; stroke-linecap:round; stroke-linejoin:round; stroke-width:4; stroke-opacity:1; fill:none" points="1444.16,1031.47 1444.16,1012.57 "/>
<polyline clip-path="url(#clip600)" style="stroke:#000000; stroke-linecap:round; stroke-linejoin:round; stroke-width:4; stroke-opacity:1; fill:none" points="1685.25,1031.47 1685.25,1012.57 "/>
<g clip-path="url(#clip600)">
<text style="fill:#000000; fill-opacity:1; font-family:Century Gothic,CenturyGothic,AppleGothic,sans-serif; font-size:47px; text-anchor:middle;" transform="rotate(0, 238.685, 1087.93)" x="238.685" y="1087.93">0</text>
</g>
<g clip-path="url(#clip600)">
<text style="fill:#000000; fill-opacity:1; font-family:Century Gothic,CenturyGothic,AppleGothic,sans-serif; font-size:47px; text-anchor:middle;" transform="rotate(0, 479.779, 1087.93)" x="479.779" y="1087.93">10</text>
</g>
<g clip-path="url(#clip600)">
<text style="fill:#000000; fill-opacity:1; font-family:Century Gothic,CenturyGothic,AppleGothic,sans-serif; font-size:47px; text-anchor:middle;" transform="rotate(0, 720.873, 1087.93)" x="720.873" y="1087.93">20</text>
</g>
<g clip-path="url(#clip600)">
<text style="fill:#000000; fill-opacity:1; font-family:Century Gothic,CenturyGothic,AppleGothic,sans-serif; font-size:47px; text-anchor:middle;" transform="rotate(0, 961.967, 1087.93)" x="961.967" y="1087.93">30</text>
</g>
<g clip-path="url(#clip600)">
<text style="fill:#000000; fill-opacity:1; font-family:Century Gothic,CenturyGothic,AppleGothic,sans-serif; font-size:47px; text-anchor:middle;" transform="rotate(0, 1203.06, 1087.93)" x="1203.06" y="1087.93">40</text>
</g>
<g clip-path="url(#clip600)">
<text style="fill:#000000; fill-opacity:1; font-family:Century Gothic,CenturyGothic,AppleGothic,sans-serif; font-size:47px; text-anchor:middle;" transform="rotate(0, 1444.16, 1087.93)" x="1444.16" y="1087.93">50</text>
</g>
<g clip-path="url(#clip600)">
<text style="fill:#000000; fill-opacity:1; font-family:Century Gothic,CenturyGothic,AppleGothic,sans-serif; font-size:47px; text-anchor:middle;" transform="rotate(0, 1685.25, 1087.93)" x="1685.25" y="1087.93">60</text>
</g>
<g clip-path="url(#clip600)">
<text style="fill:#000000; fill-opacity:1; font-family:Century Gothic,CenturyGothic,AppleGothic,sans-serif; font-size:65px; text-anchor:middle;" transform="rotate(0, 986.076, 1165.56)" x="986.076" y="1165.56">最適化の繰り返し回数</text>
</g>
<polyline clip-path="url(#clip602)" style="stroke:#000000; stroke-linecap:round; stroke-linejoin:round; stroke-width:2; stroke-opacity:0.1; fill:none" points="219.397,955.654 1752.76,955.654 "/>
<polyline clip-path="url(#clip602)" style="stroke:#000000; stroke-linecap:round; stroke-linejoin:round; stroke-width:2; stroke-opacity:0.1; fill:none" points="219.397,752.224 1752.76,752.224 "/>
<polyline clip-path="url(#clip602)" style="stroke:#000000; stroke-linecap:round; stroke-linejoin:round; stroke-width:2; stroke-opacity:0.1; fill:none" points="219.397,548.794 1752.76,548.794 "/>
<polyline clip-path="url(#clip602)" style="stroke:#000000; stroke-linecap:round; stroke-linejoin:round; stroke-width:2; stroke-opacity:0.1; fill:none" points="219.397,345.364 1752.76,345.364 "/>
<polyline clip-path="url(#clip602)" style="stroke:#000000; stroke-linecap:round; stroke-linejoin:round; stroke-width:2; stroke-opacity:0.1; fill:none" points="219.397,141.934 1752.76,141.934 "/>
<polyline clip-path="url(#clip600)" style="stroke:#000000; stroke-linecap:round; stroke-linejoin:round; stroke-width:4; stroke-opacity:1; fill:none" points="219.397,1031.47 219.397,47.2441 "/>
<polyline clip-path="url(#clip600)" style="stroke:#000000; stroke-linecap:round; stroke-linejoin:round; stroke-width:4; stroke-opacity:1; fill:none" points="219.397,955.654 238.295,955.654 "/>
<polyline clip-path="url(#clip600)" style="stroke:#000000; stroke-linecap:round; stroke-linejoin:round; stroke-width:4; stroke-opacity:1; fill:none" points="219.397,752.224 238.295,752.224 "/>
<polyline clip-path="url(#clip600)" style="stroke:#000000; stroke-linecap:round; stroke-linejoin:round; stroke-width:4; stroke-opacity:1; fill:none" points="219.397,548.794 238.295,548.794 "/>
<polyline clip-path="url(#clip600)" style="stroke:#000000; stroke-linecap:round; stroke-linejoin:round; stroke-width:4; stroke-opacity:1; fill:none" points="219.397,345.364 238.295,345.364 "/>
<polyline clip-path="url(#clip600)" style="stroke:#000000; stroke-linecap:round; stroke-linejoin:round; stroke-width:4; stroke-opacity:1; fill:none" points="219.397,141.934 238.295,141.934 "/>
<g clip-path="url(#clip600)">
<text style="fill:#000000; fill-opacity:1; font-family:Century Gothic,CenturyGothic,AppleGothic,sans-serif; font-size:47px; text-anchor:middle;" transform="rotate(0, 166.524, 973.154)" x="166.524" y="973.154">20</text>
</g>
<g clip-path="url(#clip600)">
<text style="fill:#000000; fill-opacity:1; font-family:Century Gothic,CenturyGothic,AppleGothic,sans-serif; font-size:47px; text-anchor:middle;" transform="rotate(0, 166.524, 769.724)" x="166.524" y="769.724">40</text>
</g>
<g clip-path="url(#clip600)">
<text style="fill:#000000; fill-opacity:1; font-family:Century Gothic,CenturyGothic,AppleGothic,sans-serif; font-size:47px; text-anchor:middle;" transform="rotate(0, 166.524, 566.294)" x="166.524" y="566.294">60</text>
</g>
<g clip-path="url(#clip600)">
<text style="fill:#000000; fill-opacity:1; font-family:Century Gothic,CenturyGothic,AppleGothic,sans-serif; font-size:47px; text-anchor:middle;" transform="rotate(0, 166.524, 362.864)" x="166.524" y="362.864">80</text>
</g>
<g clip-path="url(#clip600)">
<text style="fill:#000000; fill-opacity:1; font-family:Century Gothic,CenturyGothic,AppleGothic,sans-serif; font-size:47px; text-anchor:middle;" transform="rotate(0, 153.587, 159.434)" x="153.587" y="159.434">100</text>
</g>
<g clip-path="url(#clip600)">
<text style="fill:#000000; fill-opacity:1; font-family:Century Gothic,CenturyGothic,AppleGothic,sans-serif; font-size:65px; text-anchor:middle;" transform="rotate(-90, 77.8217, 539.356)" x="77.8217" y="539.356">誤差</text>
</g>
<polyline clip-path="url(#clip602)" style="stroke:#009af9; stroke-linecap:round; stroke-linejoin:round; stroke-width:4; stroke-opacity:1; fill:none" points="262.794,75.0995 286.903,249.102 311.013,377.198 335.122,552.97 359.232,722.555 383.341,773.019 407.45,822.886 431.56,850.815 455.669,868.924 479.779,889.875 503.888,913.946 527.998,935.348 552.107,943.789 576.216,955.08 600.326,963.627 624.435,969.843 648.545,975.768 672.654,979.291 696.763,981.695 720.873,983.511 744.982,986.212 769.092,988.844 793.201,990.387 817.311,993.515 841.42,996.304 865.529,997.129 889.639,998.178 913.748,999.385 937.858,999.958 961.967,1000.14 986.076,1000.47 1010.19,1000.73 1034.3,1000.87 1058.4,1000.98 1082.51,1001.15 1106.62,1001.33 1130.73,1001.49 1154.84,1001.78 1178.95,1002.04 1203.06,1002.21 1227.17,1002.36 1251.28,1002.42 1275.39,1002.48 1299.5,1002.53 1323.61,1002.56 1347.72,1002.59 1371.83,1002.63 1395.94,1002.67 1420.05,1002.74 1444.16,1002.78 1468.26,1002.84 1492.37,1002.93 1516.48,1002.97 1540.59,1003.1 1564.7,1003.3 1588.81,1003.42 1612.92,1003.48 1637.03,1003.52 1661.14,1003.59 1685.25,1003.6 1709.36,1003.61 "/>
</svg>
